<?xml version="1.0" encoding="UTF-8"?>
<svg width="500" height="150" viewBox="0 0 500 150" version="1.1" xmlns="http://www.w3.org/2000/svg" xmlns:xlink="http://www.w3.org/1999/xlink">
    <title>Logo AlhambraCRM</title>
    <defs>
        <linearGradient id="grad1" x1="0%" y1="0%" x2="100%" y2="0%">
            <stop offset="0%" style="stop-color:#3498db;stop-opacity:1" />
            <stop offset="100%" style="stop-color:#2ecc71;stop-opacity:1" />
        </linearGradient>
    </defs>
    <g id="Logo-AlhambraCRM" stroke="none" stroke-width="1" fill="none" fill-rule="evenodd">
        <!-- Silueta de la Alhambra -->
        <path d="M50,110 L70,60 L90,110 L110,60 L130,110 L150,60 L170,110 L50,110 Z" id="Alhambra-Icon" fill="url(#grad1)"/>
        
        <!-- Texto AlhambraCRM -->
        <g id="Text" transform="translate(190, 85)" fill="#FFFFFF">
            <path d="M0,0 L8,0 L12,25 L16,0 L24,0 L16,40 L8,40 L0,0 Z" id="A"/>
            <path d="M30,0 L38,0 L38,40 L30,40 L30,0 Z" id="l"/>
            <path d="M45,0 L53,0 L53,5 C55,2 58,0 62,0 C68,0 72,4 72,10 L72,40 L64,40 L64,12 C64,8 62,6 58,6 C54,6 53,8 53,12 L53,40 L45,40 L45,0 Z" id="h"/>
            <path d="M80,20 C80,10 86,0 95,0 C104,0 110,10 110,20 C110,30 104,40 95,40 C86,40 80,30 80,20 Z M88,20 C88,26 91,32 95,32 C99,32 102,26 102,20 C102,14 99,8 95,8 C91,8 88,14 88,20 Z" id="a"/>
            <path d="M120,0 L128,0 L128,5 C130,2 133,0 137,0 C143,0 147,4 147,10 L147,40 L139,40 L139,12 C139,8 137,6 133,6 C129,6 128,8 128,12 L128,40 L120,40 L120,0 Z" id="m"/>
            <path d="M155,0 L163,0 L163,5 C165,2 168,0 172,0 C175,0 177,1 178,3 C180,1 183,0 187,0 C193,0 197,4 197,10 L197,40 L189,40 L189,12 C189,8 187,6 183,6 C179,6 178,8 178,12 L178,40 L170,40 L170,12 C170,8 168,6 164,6 C160,6 159,8 159,12 L159,40 L151,40 L151,0 L155,0 Z" id="b"/>
            <path d="M205,0 L213,0 L213,5 C215,2 218,0 222,0 C228,0 232,4 232,10 L232,40 L224,40 L224,12 C224,8 222,6 218,6 C214,6 213,8 213,12 L213,40 L205,40 L205,0 Z" id="r"/>
            <path d="M240,20 C240,10 246,0 255,0 C264,0 270,10 270,20 C270,30 264,40 255,40 C246,40 240,30 240,20 Z M248,20 C248,26 251,32 255,32 C259,32 262,26 262,20 C262,14 259,8 255,8 C251,8 248,14 248,20 Z" id="a"/>
            <path d="M280,0 L288,0 L288,40 L280,40 L280,0 Z M280,-10 L288,-10 L288,0 L280,0 L280,-10 Z" id="C"/>
            <path d="M295,0 L303,0 L303,5 C305,2 308,0 312,0 C318,0 322,4 322,10 L322,40 L314,40 L314,12 C314,8 312,6 308,6 C304,6 303,8 303,12 L303,40 L295,40 L295,0 Z" id="R"/>
            <path d="M330,0 L338,0 L338,5 C340,2 343,0 347,0 C353,0 357,4 357,10 L357,40 L349,40 L349,12 C349,8 347,6 343,6 C339,6 338,8 338,12 L338,40 L330,40 L330,0 Z" id="M"/>
        </g>
    </g>
</svg>
