<?xml version="1.0" encoding="UTF-8"?>
<svg width="200px" height="50px" viewBox="0 0 200 50" version="1.1" xmlns="http://www.w3.org/2000/svg" xmlns:xlink="http://www.w3.org/1999/xlink">
    <title>Logo Alhambra CRM</title>
    <g id="Logo" stroke="none" stroke-width="1" fill="none" fill-rule="evenodd">
        <g id="logo-alhambra" fill="#FFFFFF" fill-rule="nonzero">
            <path d="M20.5,10 L10.5,40 L5,40 L15,10 L20.5,10 Z M25,10 L35,40 L29.5,40 L19.5,10 L25,10 Z" id="A"></path>
            <path d="M40,10 L40,40 L45,40 L45,10 L40,10 Z M48,10 L48,40 L53,40 L53,25 L60,25 L60,20 L53,20 L53,15 L62,15 L62,10 L48,10 Z" id="L"></path>
            <path d="M65,10 L65,40 L70,40 L70,28 L75,28 L80,40 L85,40 L79.5,27.5 C82,26 83.5,23.5 83.5,20 C83.5,14.5 79,10 73.5,10 L65,10 Z M70,15 L73.5,15 C76,15 78,17 78,20 C78,23 76,25 73.5,25 L70,25 L70,15 Z" id="H"></path>
            <path d="M90,10 L90,40 L95,40 L95,28 L100,28 L105,40 L110,40 L104.5,27.5 C107,26 108.5,23.5 108.5,20 C108.5,14.5 104,10 98.5,10 L90,10 Z M95,15 L98.5,15 C101,15 103,17 103,20 C103,23 101,25 98.5,25 L95,25 L95,15 Z" id="H"></path>
            <path d="M115,10 L115,40 L130,40 L130,35 L120,35 L120,27.5 L128,27.5 L128,22.5 L120,22.5 L120,15 L130,15 L130,10 L115,10 Z" id="E"></path>
            <path d="M135,10 L135,40 L140,40 L140,15 L145,15 L145,40 L150,40 L150,15 L155,15 L155,40 L160,40 L160,10 L135,10 Z" id="M"></path>
            <path d="M165,10 L165,40 L170,40 L170,28 L175,28 L180,40 L185,40 L179.5,27.5 C182,26 183.5,23.5 183.5,20 C183.5,14.5 179,10 173.5,10 L165,10 Z M170,15 L173.5,15 C176,15 178,17 178,20 C178,23 176,25 173.5,25 L170,25 L170,15 Z" id="R"></path>
            <path d="M190,10 L190,40 L195,40 L195,28 L200,28 L200,40 L205,40 L205,10 L200,10 L200,23 L195,23 L195,10 L190,10 Z" id="A"></path>
        </g>
    </g>
</svg>
