<?xml version="1.0" encoding="UTF-8"?>
<svg width="200px" height="50px" viewBox="0 0 200 50" version="1.1" xmlns="http://www.w3.org/2000/svg" xmlns:xlink="http://www.w3.org/1999/xlink">
    <title>Logo AlhambraCRM</title>
    <g id="Logo-AlhambraCRM" stroke="none" stroke-width="1" fill="none" fill-rule="evenodd">
        <g id="Logo" fill="#FFFFFF">
            <path d="M10,40 L15,15 L20,40 L25,15 L30,40 L35,15 L40,40 L10,40 Z" id="Alhambra-Icon"></path>
            <path d="M50,20 L54,20 L54,40 L50,40 L50,20 Z M50,15 L54,15 L54,19 L50,19 L50,15 Z" id="i"></path>
            <path d="M60,20 L64,20 L64,22 C65.3333333,20.6666667 67,20 69,20 C72.3333333,20 74,22 74,26 L74,40 L70,40 L70,27 C70,25 69,24 67,24 C65,24 64,25 64,27 L64,40 L60,40 L60,20 Z" id="h"></path>
            <path d="M80,30 C80,25.3333333 83,22 87.5,22 C92,22 95,25.3333333 95,30 C95,34.6666667 92,38 87.5,38 C83,38 80,34.6666667 80,30 Z M84,30 C84,32.6666667 85.3333333,34 87.5,34 C89.6666667,34 91,32.6666667 91,30 C91,27.3333333 89.6666667,26 87.5,26 C85.3333333,26 84,27.3333333 84,30 Z" id="o"></path>
            <path d="M100,20 L104,20 L104,22 C105.333333,20.6666667 107,20 109,20 C112.333333,20 114,22 114,26 L114,40 L110,40 L110,27 C110,25 109,24 107,24 C105,24 104,25 104,27 L104,40 L100,40 L100,20 Z" id="m"></path>
            <path d="M120,20 L124,20 L124,22 C125.333333,20.6666667 127,20 129,20 C131,20 132.333333,20.6666667 133,22 C134.333333,20.6666667 136,20 138,20 C141.333333,20 143,22 143,26 L143,40 L139,40 L139,27 C139,25 138,24 136,24 C134,24 133,25 133,27 L133,40 L129,40 L129,27 C129,25 128,24 126,24 C124,24 123,25 123,27 L123,40 L119,40 L119,20 L120,20 Z" id="m"></path>
            <path d="M150,20 L154,20 L154,22 C155.333333,20.6666667 157,20 159,20 C162.333333,20 164,22 164,26 L164,40 L160,40 L160,27 C160,25 159,24 157,24 C155,24 154,25 154,27 L154,40 L150,40 L150,20 Z" id="n"></path>
            <path d="M170,30 C170,25.3333333 173,22 177.5,22 C182,22 185,25.3333333 185,30 C185,34.6666667 182,38 177.5,38 C173,38 170,34.6666667 170,30 Z M174,30 C174,32.6666667 175.333333,34 177.5,34 C179.666667,34 181,32.6666667 181,30 C181,27.3333333 179.666667,26 177.5,26 C175.333333,26 174,27.3333333 174,30 Z" id="o"></path>
            <path d="M190,12 L194,12 L194,40 L190,40 L190,12 Z" id="l"></path>
            <path d="M54,12 L58,12 L58,16 L54,16 L54,12 Z" id="dot"></path>
        </g>
    </g>
</svg>
